<svg xmlns="http://www.w3.org/2000/svg" width="512" height="512" viewBox="0 0 512 512" fill="none"><defs>
<linearGradient id="dark" x1="0" y1="512" x2="92.2" y2="0" gradientUnits="userSpaceOnUse">
<stop offset="0" stop-color="#6E54FC"></stop><stop offset="0.55" stop-color="#8270FC"></stop><stop offset="1" stop-color="#B7AEFD"></stop>
</linearGradient>
<linearGradient id="light" x1="0" y1="512" x2="0" y2="0" gradientUnits="userSpaceOnUse">
<stop offset="0" stop-color="#DAD5FB"></stop><stop offset="1" stop-color="#FAF9FF"></stop>
</linearGradient>
</defs><path d="M 256 56 C 238 56 220 63 206 76 L 86 186 C 70 200 60 220 60 242 L 60 420 C 60 448 82 470 110 470 L 402 470 C 430 470 452 448 452 420 L 452 242 C 452 220 442 200 426 186 L 306 76 C 292 63 274 56 256 56 Z" fill="url(#dark)"></path><rect x="206" y="330" width="100" height="140" rx="26" fill="url(#light)"></rect></svg>