<svg xmlns="http://www.w3.org/2000/svg" width="438.97" height="512" viewBox="0 0 438.97 512" fill="none">
<defs>
<linearGradient id="dark" x1="0" y1="512" x2="79.0" y2="0" gradientUnits="userSpaceOnUse">
<stop offset="0" stop-color="#6E54FC"></stop><stop offset="0.55" stop-color="#8270FC"></stop><stop offset="1" stop-color="#B7AEFD"></stop>
</linearGradient>
<linearGradient id="light" x1="0" y1="512" x2="0" y2="0" gradientUnits="userSpaceOnUse">
<stop offset="0" stop-color="#DAD5FB"></stop><stop offset="1" stop-color="#FAF9FF"></stop>
</linearGradient>
</defs>
<g transform="translate(28.49 0.006)"><path d="M 300.03 0 L 0 0 C 7.86 0 14.99 3.19 20.14 8.34 C 25.3 13.49 28.48 20.61 28.48 28.48 L 28.48 483.97 C 28.48 499.45 41.03 512 56.51 512 L 353.48 512 L 353.48 53.47 C 353.48 23.94 329.54 0 300.02 0 L 300.03 0 Z M 225.14 329.71 C 221.09 331 218.31 334.72 218.31 338.97 L 218.31 352.59 C 218.31 356.79 214.9 360.2 210.7 360.2 L 190.97 360.2 C 186.77 360.2 183.36 356.79 183.36 352.59 L 183.36 339 C 183.36 334.73 180.56 331 176.49 329.73 C 150.36 321.52 137.14 298.72 137.14 264.69 L 137.14 253.67 C 137.14 249.47 140.55 246.06 144.75 246.06 L 169.92 246.06 C 174.12 246.06 177.53 249.47 177.53 253.67 L 177.53 267.41 C 177.53 286.83 186.07 293.82 199.66 293.82 C 213.25 293.82 221.8 286.83 221.8 267.41 C 221.8 211.48 138.3 208.77 138.3 131.1 C 138.3 97.44 151.19 75 176.64 66.54 C 180.63 65.21 183.35 61.52 183.35 57.31 L 183.35 44.13 C 183.35 39.41 187.17 35.58 191.89 35.58 L 209.75 35.58 C 214.47 35.58 218.3 39.41 218.3 44.13 L 218.3 57.19 C 218.3 61.45 221.09 65.17 225.14 66.46 C 250.93 74.64 264.13 97.09 264.13 131.1 C 264.13 133.46 263.17 135.6 261.63 137.15 C 260.08 138.69 257.94 139.65 255.58 139.65 L 232.28 139.65 C 227.56 139.65 223.73 135.82 223.73 131.1 L 223.73 128.38 C 223.73 108.96 215.96 101.58 202.37 101.58 C 188.78 101.58 181.01 108.95 181.01 128.38 C 181.01 184.31 264.51 187.02 264.51 264.69 C 264.51 298.7 250.98 321.5 225.13 329.72 L 225.14 329.71 Z" fill="url(#dark)" fill-rule="nonzero"></path></g><g transform="translate(165.64 35.576)"><path d="M 46.2 21.72 L 46.2 8.54 C 46.2 3.82 50.03 0 54.74 0 L 72.6 0 C 77.32 0 81.14 3.83 81.14 8.54 L 81.14 21.6 C 81.14 25.86 83.93 29.58 87.99 30.87 C 113.77 39.04 126.97 61.5 126.97 95.51 C 126.97 100.23 123.14 104.05 118.43 104.05 L 95.13 104.05 C 90.41 104.05 86.59 100.22 86.59 95.51 L 86.59 92.79 C 86.59 73.37 78.82 65.99 65.23 65.99 C 51.64 65.99 43.87 73.37 43.87 92.79 C 43.87 148.71 127.37 151.43 127.37 229.11 C 127.37 263.12 113.84 285.91 87.99 294.13 C 83.94 295.42 81.15 299.14 81.15 303.4 L 81.15 317.01 C 81.15 321.22 77.74 324.62 73.54 324.62 L 53.82 324.62 C 49.61 324.62 46.21 321.21 46.21 317.01 L 46.21 303.42 C 46.21 299.16 43.42 295.42 39.35 294.15 C 13.22 285.94 0 263.14 0 229.11 L 0 218.08 C 0 213.87 3.41 210.47 7.61 210.47 L 32.77 210.47 C 36.98 210.47 40.38 213.88 40.38 218.08 L 40.38 231.83 C 40.38 251.25 48.92 258.24 62.52 258.24 C 76.12 258.24 84.66 251.25 84.66 231.83 C 84.66 175.91 1.16 173.19 1.16 95.51 C 1.16 61.84 14.04 39.41 39.5 30.94 C 43.49 29.61 46.21 25.92 46.21 21.71 L 46.2 21.72 Z" fill="url(#light)" fill-rule="nonzero"></path></g><g transform="translate(0 0)"><path d="M 56.98 28.486 L 56.98 260.686 L 28.2 260.686 C 12.63 260.686 0 248.066 0 232.486 L 0 29.066 C 0 13.476 12.3 0.336 27.89 0.006 C 35.99 -0.164 43.35 3.056 48.64 8.346 C 53.8 13.496 56.99 20.616 56.99 28.486 L 56.98 28.486 Z" fill="url(#dark)" fill-rule="nonzero"></path></g><g transform="translate(85.46 381.666)"><path d="M 353.51 76.88 L 353.51 28.2 C 353.51 12.63 340.88 0 325.31 0 L 56.7 0 C 41.13 0 28.5 12.63 28.5 28.2 L 28.5 101.86 C 28.5 109.73 25.31 116.85 20.15 122 C 14.99 127.16 7.87 130.35 0 130.35 L 300.03 130.35 C 329.56 130.35 353.49 106.41 353.49 76.89 L 353.51 76.88 Z" fill="url(#dark)" fill-rule="nonzero"></path></g>
</svg>