<svg xmlns="http://www.w3.org/2000/svg" width="467.14" height="512" viewBox="0 0 467.14 512" fill="none">
<defs>
<linearGradient id="dark" x1="0" y1="512" x2="84.1" y2="0" gradientUnits="userSpaceOnUse">
<stop offset="0" stop-color="#6E54FC"></stop><stop offset="0.55" stop-color="#8270FC"></stop><stop offset="1" stop-color="#B7AEFD"></stop>
</linearGradient>
<linearGradient id="light" x1="0" y1="512" x2="0" y2="0" gradientUnits="userSpaceOnUse">
<stop offset="0" stop-color="#DAD5FB"></stop><stop offset="1" stop-color="#FAF9FF"></stop>
</linearGradient>
</defs>
<g transform="translate(33.78 0)"><path d="M 399.396 351.16 L 374.956 48.79 C 374.756 46.27 374.376 43.81 373.836 41.41 C 368.486 17.53 347.186 0 322.066 0 L 77.506 0 C 52.386 0 31.086 17.53 25.736 41.41 C 25.186 43.81 24.816 46.27 24.616 48.79 L 0.176 351.16 C -2.324 382.05 22.076 408.5 53.066 408.5 L 346.506 408.5 C 377.496 408.5 401.896 382.05 399.396 351.16 Z M 304.846 275.27 C 304.846 316.42 271.486 349.77 230.336 349.77 L 175.846 349.77 C 134.696 349.77 101.336 316.42 101.336 275.26 L 101.336 111.92 C 101.336 103.91 107.826 97.43 115.826 97.43 L 132.036 97.43 C 140.036 97.43 146.526 103.91 146.526 111.92 L 146.526 275.26 C 146.526 291.45 159.656 304.57 175.846 304.57 L 230.336 304.57 C 246.536 304.57 259.656 291.45 259.656 275.25 L 259.656 111.92 C 259.656 103.91 266.146 97.43 274.146 97.43 L 290.356 97.43 C 298.366 97.43 304.846 103.91 304.846 111.92 L 304.846 275.26 L 304.846 275.27 Z" fill="url(#light)" fill-rule="nonzero"></path></g><g transform="translate(0 35.94)"><path d="M 466.956 418.72 L 437.056 48.79 C 435.496 29.59 423.866 13.47 407.606 5.46 C 400.516 1.96 392.546 0 384.156 0 L 82.966 0 C 74.576 0 66.606 1.96 59.516 5.46 C 43.256 13.47 31.626 29.59 30.066 48.79 L 0.176 418.72 C -2.324 449.61 22.076 476.06 53.066 476.06 L 414.066 476.06 C 445.056 476.06 469.456 449.61 466.956 418.72 Z M 135.126 75.98 C 135.126 67.97 141.616 61.49 149.616 61.49 L 165.826 61.49 C 173.826 61.49 180.316 67.97 180.316 75.98 L 180.316 239.32 C 180.316 255.51 193.446 268.63 209.636 268.63 L 264.126 268.63 C 280.326 268.63 293.446 255.51 293.446 239.31 L 293.446 75.98 C 293.446 67.97 299.936 61.49 307.936 61.49 L 324.146 61.49 C 332.156 61.49 338.636 67.97 338.636 75.98 L 338.636 239.32 C 338.636 280.47 305.276 313.82 264.126 313.82 L 209.636 313.82 C 168.486 313.82 135.126 280.47 135.126 239.31 L 135.126 75.98 Z" fill="url(#dark)" fill-rule="nonzero"></path></g><g transform="translate(135.126 97.43)"><path d="M 129 252.34 L 74.51 252.34 C 33.36 252.34 0 218.98 0 177.83 L 0 14.49 C 0 6.49 6.49 0 14.49 0 L 30.7 0 C 38.7 0 45.19 6.49 45.19 14.49 L 45.19 177.83 C 45.19 194.02 58.32 207.15 74.51 207.15 L 129 207.15 C 145.19 207.15 158.32 194.02 158.32 177.83 L 158.32 14.49 C 158.32 6.49 164.81 0 172.81 0 L 189.02 0 C 197.02 0 203.51 6.49 203.51 14.49 L 203.51 177.83 C 203.51 218.98 170.15 252.33 129.01 252.33 L 129 252.34 Z" fill="url(#light)" fill-rule="nonzero"></path></g>
</svg>