<svg xmlns="http://www.w3.org/2000/svg" width="521.99" height="531.86" viewBox="0 0 521.99 531.86" fill="none">
<defs>
<linearGradient id="dark" x1="0" y1="531.86" x2="94.0" y2="0" gradientUnits="userSpaceOnUse">
<stop offset="0" stop-color="#6E54FC"></stop><stop offset="0.55" stop-color="#8270FC"></stop><stop offset="1" stop-color="#B7AEFD"></stop>
</linearGradient>
<linearGradient id="light" x1="0" y1="531.86" x2="0" y2="0" gradientUnits="userSpaceOnUse">
<stop offset="0" stop-color="#DAD5FB"></stop><stop offset="1" stop-color="#FAF9FF"></stop>
</linearGradient>
</defs>
<g transform="translate(0 0)"><path d="M 508.38 259.12 L 501.575 259.12 C 501.575 398.594 390.694 511.435 254.19 511.435 L 254.19 518.24 L 254.19 525.045 C 398.456 525.045 515.185 405.862 515.185 259.12 L 508.38 259.12 Z M 254.19 518.24 L 254.19 511.435 C 117.686 511.435 6.805 398.594 6.805 259.12 L 0 259.12 L -6.805 259.12 C -6.805 405.862 109.924 525.045 254.19 525.045 L 254.19 518.24 Z M 0 259.12 L 6.805 259.12 C 6.805 119.646 117.686 6.805 254.19 6.805 L 254.19 0 L 254.19 -6.805 C 109.924 -6.805 -6.805 112.378 -6.805 259.12 L 0 259.12 Z M 254.19 0 L 254.19 6.805 C 390.694 6.805 501.575 119.646 501.575 259.12 L 508.38 259.12 L 515.185 259.12 C 515.185 112.378 398.456 -6.805 254.19 -6.805 L 254.19 0 Z" fill="url(#dark)" fill-rule="nonzero"></path></g><g transform="translate(43.95 44.8)"><path d="M 210.24 428.64 C 326.352 428.64 420.48 332.686 420.48 214.32 C 420.48 95.954 326.352 0 210.24 0 C 94.128 0 0 95.954 0 214.32 C 0 332.686 94.128 428.64 210.24 428.64 Z" fill="url(#light)" fill-rule="nonzero"></path></g><g transform="translate(0 163.91)"><path d="M 508.38 95.21 L 501.575 95.21 C 501.575 105.708 495.919 116.525 483.893 127.176 C 471.875 137.818 454.096 147.713 431.543 156.161 C 386.485 173.038 323.783 183.615 254.19 183.615 L 254.19 190.42 L 254.19 197.225 C 324.982 197.225 389.375 186.489 436.316 168.906 C 459.762 160.124 479.208 149.503 492.916 137.365 C 506.615 125.233 515.185 111.004 515.185 95.21 L 508.38 95.21 Z M 254.19 190.42 L 254.19 183.615 C 184.597 183.615 121.895 173.038 76.837 156.161 C 54.284 147.713 36.505 137.818 24.487 127.176 C 12.461 116.525 6.805 105.708 6.805 95.21 L 0 95.21 L -6.805 95.21 C -6.805 111.004 1.765 125.233 15.464 137.365 C 29.172 149.503 48.618 160.124 72.064 168.906 C 119.005 186.489 183.398 197.225 254.19 197.225 L 254.19 190.42 Z M 0 95.21 L 6.805 95.21 C 6.805 84.712 12.461 73.895 24.487 63.244 C 36.505 52.602 54.284 42.707 76.837 34.259 C 121.895 17.382 184.597 6.805 254.19 6.805 L 254.19 0 L 254.19 -6.805 C 183.398 -6.805 119.005 3.931 72.064 21.514 C 48.618 30.296 29.172 40.917 15.464 53.055 C 1.765 65.187 -6.805 79.416 -6.805 95.21 L 0 95.21 Z M 254.19 0 L 254.19 6.805 C 323.783 6.805 386.485 17.382 431.543 34.259 C 454.096 42.707 471.875 52.602 483.893 63.244 C 495.919 73.895 501.575 84.712 501.575 95.21 L 508.38 95.21 L 515.185 95.21 C 515.185 79.416 506.615 65.187 492.916 53.055 C 479.208 40.917 459.762 30.296 436.316 21.514 C 389.375 3.931 324.982 -6.805 254.19 -6.805 L 254.19 0 Z" fill="url(#dark)" fill-rule="nonzero"></path></g><g transform="translate(254.19 6.58)"><path d="M 0 0 L -6.805 0 L -6.805 511.66 L 0 511.66 L 6.805 511.66 L 6.805 0 L 0 0 Z" fill="url(#dark)" fill-rule="nonzero"></path></g><g transform="translate(160.79 0)"><path d="M 186.8 259.12 L 179.995 259.12 C 179.995 330.099 169.614 394.063 153.042 440.038 C 144.746 463.054 135.027 481.2 124.576 493.463 C 114.103 505.753 103.542 511.435 93.4 511.435 L 93.4 518.24 L 93.4 525.045 C 109.05 525.045 123.06 516.226 134.935 502.291 C 146.833 488.33 157.24 468.528 165.846 444.653 C 183.078 396.845 193.605 331.249 193.605 259.12 L 186.8 259.12 Z M 93.4 518.24 L 93.4 511.435 C 83.258 511.435 72.697 505.753 62.224 493.463 C 51.773 481.2 42.054 463.054 33.758 440.038 C 17.186 394.063 6.805 330.099 6.805 259.12 L 0 259.12 L -6.805 259.12 C -6.805 331.249 3.722 396.845 20.954 444.653 C 29.56 468.528 39.967 488.33 51.865 502.291 C 63.74 516.226 77.75 525.045 93.4 525.045 L 93.4 518.24 Z M 0 259.12 L 6.805 259.12 C 6.805 188.141 17.186 124.177 33.758 78.202 C 42.054 55.186 51.773 37.04 62.224 24.777 C 72.697 12.487 83.258 6.805 93.4 6.805 L 93.4 0 L 93.4 -6.805 C 77.75 -6.805 63.74 2.014 51.865 15.949 C 39.967 29.91 29.56 49.712 20.954 73.587 C 3.722 121.395 -6.805 186.991 -6.805 259.12 L 0 259.12 Z M 93.4 0 L 93.4 6.805 C 103.542 6.805 114.103 12.487 124.576 24.777 C 135.027 37.04 144.746 55.186 153.042 78.202 C 169.614 124.177 179.995 188.141 179.995 259.12 L 186.8 259.12 L 193.605 259.12 C 193.605 186.991 183.078 121.395 165.846 73.587 C 157.24 49.712 146.833 29.91 134.935 15.949 C 123.06 2.014 109.05 -6.805 93.4 -6.805 L 93.4 0 Z" fill="url(#dark)" fill-rule="nonzero"></path></g>
</svg>