<svg xmlns="http://www.w3.org/2000/svg" width="512" height="512" viewBox="0 0 512 512" fill="none"><defs>
<linearGradient id="d" x1="80" y1="40" x2="440" y2="480" gradientUnits="userSpaceOnUse"><stop offset="0" stop-color="#8E7BFF"></stop><stop offset="1" stop-color="#6246F2"></stop></linearGradient>
<linearGradient id="l" x1="120" y1="80" x2="400" y2="460" gradientUnits="userSpaceOnUse"><stop offset="0" stop-color="#FFFFFF" stop-opacity="0.95"></stop><stop offset="1" stop-color="#E5DEFF" stop-opacity="0.85"></stop></linearGradient></defs><path d="M 220 60 C 232 150 250 168 340 180 C 250 192 232 210 220 300 C 208 210 190 192 100 180 C 190 168 208 150 220 60 Z" fill="url(#d)" fill-opacity="0.82"></path><path d="M 370 280 C 378 332 388 342 440 350 C 388 358 378 368 370 420 C 362 368 352 358 300 350 C 352 342 362 332 370 280 Z" fill="url(#l)"></path></svg>