<svg xmlns="http://www.w3.org/2000/svg" width="512" height="512" viewBox="0 0 512 512" fill="none"><defs>
<linearGradient id="d" x1="80" y1="40" x2="440" y2="480" gradientUnits="userSpaceOnUse"><stop offset="0" stop-color="#8E7BFF"></stop><stop offset="1" stop-color="#6246F2"></stop></linearGradient>
<linearGradient id="l" x1="120" y1="80" x2="400" y2="460" gradientUnits="userSpaceOnUse"><stop offset="0" stop-color="#FFFFFF" stop-opacity="0.95"></stop><stop offset="1" stop-color="#E5DEFF" stop-opacity="0.85"></stop></linearGradient></defs><circle cx="170" cy="180" r="68" fill="url(#d)" fill-opacity="0.6"></circle><circle cx="342" cy="180" r="68" fill="url(#d)" fill-opacity="0.6"></circle><path d="M 70 380 C 70 320 112 290 170 290 C 228 290 270 320 270 380 L 270 410 L 70 410 Z" fill="url(#d)" fill-opacity="0.6"></path><path d="M 242 380 C 242 320 284 290 342 290 C 400 290 442 320 442 380 L 442 410 L 242 410 Z" fill="url(#d)" fill-opacity="0.6"></path><circle cx="256" cy="210" r="78" fill="url(#l)"></circle><path d="M 140 420 C 140 352 188 318 256 318 C 324 318 372 352 372 420 L 372 446 L 140 446 Z" fill="url(#l)"></path></svg>