<svg xmlns="http://www.w3.org/2000/svg" width="512" height="512" viewBox="0 0 512 512" fill="none"><defs>
<linearGradient id="d" x1="80" y1="40" x2="440" y2="480" gradientUnits="userSpaceOnUse"><stop offset="0" stop-color="#8E7BFF"></stop><stop offset="1" stop-color="#6246F2"></stop></linearGradient>
<linearGradient id="l" x1="120" y1="80" x2="400" y2="460" gradientUnits="userSpaceOnUse"><stop offset="0" stop-color="#FFFFFF" stop-opacity="0.95"></stop><stop offset="1" stop-color="#E5DEFF" stop-opacity="0.85"></stop></linearGradient></defs><path d="M 110 180 L 402 180 L 430 430 C 432 452 416 470 394 470 L 118 470 C 96 470 80 452 82 430 Z" fill="url(#d)" fill-opacity="0.78"></path><path d="M 175 195 L 175 150 C 175 105 211 70 256 70 C 301 70 337 105 337 150 L 337 195" fill="null"></path><path d="M 175 200 L 175 150 C 175 105 211 72 256 72 C 301 72 337 105 337 150 L 337 200" fill="none" stroke="url(#l)" stroke-width="34" stroke-linecap="round"></path><circle cx="196" cy="260" r="22" fill="url(#l)"></circle><circle cx="316" cy="260" r="22" fill="url(#l)"></circle></svg>