<svg xmlns="http://www.w3.org/2000/svg" width="512" height="512" viewBox="0 0 512 512" fill="none"><defs>
<linearGradient id="d" x1="80" y1="40" x2="440" y2="480" gradientUnits="userSpaceOnUse"><stop offset="0" stop-color="#8E7BFF"></stop><stop offset="1" stop-color="#6246F2"></stop></linearGradient>
<linearGradient id="l" x1="120" y1="80" x2="400" y2="460" gradientUnits="userSpaceOnUse"><stop offset="0" stop-color="#FFFFFF" stop-opacity="0.95"></stop><stop offset="1" stop-color="#E5DEFF" stop-opacity="0.85"></stop></linearGradient></defs><path d="M 120 56 L 300 56 L 420 176 L 420 432 C 420 453 403 470 382 470 L 130 470 C 109 470 92 453 92 432 L 92 84 C 92 68 105 56 120 56 Z" fill="url(#d)" fill-opacity="0.78"></path><path d="M 300 56 L 420 176 L 320 176 C 309 176 300 167 300 156 Z" fill="url(#l)"></path><rect x="238" y="238" width="36" height="150" rx="18" fill="url(#l)"></rect><rect x="180" y="296" width="150" height="36" rx="18" fill="url(#l)"></rect></svg>