<svg xmlns="http://www.w3.org/2000/svg" width="512" height="512" viewBox="0 0 512 512" fill="none"><defs>
<linearGradient id="dark" x1="0" y1="512" x2="92.2" y2="0" gradientUnits="userSpaceOnUse">
<stop offset="0" stop-color="#6E54FC"></stop><stop offset="0.55" stop-color="#8270FC"></stop><stop offset="1" stop-color="#B7AEFD"></stop>
</linearGradient>
<linearGradient id="light" x1="0" y1="512" x2="0" y2="0" gradientUnits="userSpaceOnUse">
<stop offset="0" stop-color="#DAD5FB"></stop><stop offset="1" stop-color="#FAF9FF"></stop>
</linearGradient>
</defs><path d="M 64 150 C 64 128 82 110 104 110 L 198 110 C 212 110 225 117 233 128 L 258 162 L 408 162 C 430 162 448 180 448 202 L 448 250 L 64 250 Z" fill="url(#light)"></path><path d="M 64 230 L 448 230 L 448 392 C 448 414 430 432 408 432 L 104 432 C 82 432 64 414 64 392 Z" fill="url(#dark)"></path></svg>