<svg xmlns="http://www.w3.org/2000/svg" width="510.91" height="512" viewBox="0 0 510.91 512" fill="none">
<defs>
<linearGradient id="dark" x1="0" y1="512" x2="92.0" y2="0" gradientUnits="userSpaceOnUse">
<stop offset="0" stop-color="#6E54FC"></stop><stop offset="0.55" stop-color="#8270FC"></stop><stop offset="1" stop-color="#B7AEFD"></stop>
</linearGradient>
<linearGradient id="light" x1="0" y1="512" x2="0" y2="0" gradientUnits="userSpaceOnUse">
<stop offset="0" stop-color="#DAD5FB"></stop><stop offset="1" stop-color="#FAF9FF"></stop>
</linearGradient>
</defs>
<g transform="translate(0 132.15)"><path d="M 91.96 0 L 32.02 0 C 14.336 0 0 14.336 0 32.02 L 0 347.83 C 0 365.514 14.336 379.85 32.02 379.85 L 91.96 379.85 C 109.644 379.85 123.98 365.514 123.98 347.83 L 123.98 32.02 C 123.98 14.336 109.644 0 91.96 0 Z" fill="url(#dark)" fill-rule="nonzero"></path></g><g transform="translate(309.54 132.15)"><path d="M 91.96 0 L 32.02 0 C 14.336 0 0 14.336 0 32.02 L 0 347.83 C 0 365.514 14.336 379.85 32.02 379.85 L 91.96 379.85 C 109.644 379.85 123.98 365.514 123.98 347.83 L 123.98 32.02 C 123.98 14.336 109.644 0 91.96 0 Z" fill="url(#dark)" fill-rule="nonzero"></path></g><g transform="translate(77.39 0)"><path d="M 91.96 0 L 32.02 0 C 14.336 0 0 14.336 0 32.02 L 0 479.98 C 0 497.664 14.336 512 32.02 512 L 91.96 512 C 109.644 512 123.98 497.664 123.98 479.98 L 123.98 32.02 C 123.98 14.336 109.644 0 91.96 0 Z" fill="url(#dark)" fill-rule="nonzero"></path></g><g transform="translate(232.16 217.31)"><path d="M 91.96 0 L 32.02 0 C 14.336 0 0 14.336 0 32.02 L 0 262.67 C 0 280.354 14.336 294.69 32.02 294.69 L 91.96 294.69 C 109.644 294.69 123.98 280.354 123.98 262.67 L 123.98 32.02 C 123.98 14.336 109.644 0 91.96 0 Z" fill="url(#dark)" fill-rule="nonzero"></path></g><g transform="translate(386.93 344.01)"><path d="M 91.96 0 L 32.02 0 C 14.336 0 0 14.336 0 32.02 L 0 135.97 C 0 153.654 14.336 167.99 32.02 167.99 L 91.96 167.99 C 109.644 167.99 123.98 153.654 123.98 135.97 L 123.98 32.02 C 123.98 14.336 109.644 0 91.96 0 Z" fill="url(#dark)" fill-rule="nonzero"></path></g><g transform="translate(154.77 310.63)"><path d="M 91.96 0 L 32.02 0 C 14.336 0 0 14.336 0 32.02 L 0 169.35 C 0 187.034 14.336 201.37 32.02 201.37 L 91.96 201.37 C 109.644 201.37 123.98 187.034 123.98 169.35 L 123.98 32.02 C 123.98 14.336 109.644 0 91.96 0 Z" fill="url(#dark)" fill-rule="nonzero"></path></g>
</svg>