<svg xmlns="http://www.w3.org/2000/svg" width="479.5" height="512" viewBox="0 0 479.5 512" fill="none">
<defs>
<linearGradient id="dark" x1="0" y1="512" x2="86.3" y2="0" gradientUnits="userSpaceOnUse">
<stop offset="0" stop-color="#6E54FC"></stop><stop offset="0.55" stop-color="#8270FC"></stop><stop offset="1" stop-color="#B7AEFD"></stop>
</linearGradient>
<linearGradient id="light" x1="0" y1="512" x2="0" y2="0" gradientUnits="userSpaceOnUse">
<stop offset="0" stop-color="#DAD5FB"></stop><stop offset="1" stop-color="#FAF9FF"></stop>
</linearGradient>
</defs>
<g transform="translate(0 0)"><path d="M 239.771 359.57 C 182.201 359.57 135.521 312.9 135.521 255.32 C 135.521 197.74 182.201 151.08 239.771 151.08 C 297.341 151.08 344.011 197.75 344.011 255.32 C 344.011 312.89 297.341 359.57 239.771 359.57 Z M 473.901 328.2 C 473.191 327.23 472.411 326.31 471.561 325.44 L 423.421 275.71 C 418.101 270.22 415.441 263.11 415.441 256.01 C 415.441 255.64 415.441 255.28 415.471 254.9 C 415.731 248.17 418.381 241.5 423.421 236.3 L 471.561 186.57 C 479.451 178.41 481.641 166.43 477.421 156.14 C 477.331 155.93 477.231 155.7 477.131 155.49 C 477.001 155.2 476.871 154.92 476.741 154.64 C 476.441 153.99 476.101 153.34 475.731 152.7 C 473.101 148.15 470.861 144.27 468.841 140.8 C 468.381 139.98 467.911 139.18 467.461 138.41 C 466.911 137.45 466.371 136.52 465.841 135.6 C 465.451 134.9 465.051 134.22 464.661 133.54 C 464.481 133.24 464.301 132.92 464.131 132.62 C 463.921 132.25 463.711 131.9 463.501 131.53 C 463.321 131.22 463.141 130.9 462.951 130.59 C 462.761 130.26 462.571 129.92 462.391 129.59 C 461.581 128.2 460.771 126.8 459.961 125.39 C 459.501 124.59 459.031 123.78 458.571 122.97 C 458.531 122.89 458.481 122.81 458.431 122.73 C 457.901 121.83 457.381 120.91 456.841 119.97 C 456.761 119.82 456.671 119.67 456.581 119.51 C 453.931 114.94 450.981 109.82 447.211 103.32 C 446.581 102.22 445.881 101.18 445.131 100.2 C 444.981 100 444.831 99.82 444.671 99.64 C 444.501 99.43 444.331 99.23 444.161 99.02 C 443.991 98.82 443.811 98.64 443.651 98.44 C 443.491 98.26 443.321 98.08 443.141 97.9 C 436.231 90.65 425.821 87.47 415.791 90 L 348.651 106.83 C 341.721 108.56 334.731 107.59 328.821 104.55 C 328.491 104.38 328.161 104.2 327.841 104.01 C 321.581 100.48 316.651 94.56 314.521 87.12 L 294.561 17.16 C 290.151 6.89 279.991 0.05 268.571 0.04 C 256.141 0.02 248.101 0.02 240.051 0 L 210.311 0 C 198.171 0.5 187.641 8.72 184.261 20.49 L 165.191 87.03 C 163.291 93.69 159.141 99.12 153.801 102.71 C 153.501 102.92 153.191 103.11 152.881 103.31 C 152.881 103.31 152.861 103.31 152.851 103.33 C 146.531 107.3 138.671 108.77 130.881 106.82 L 63.741 89.99 C 51.861 87.01 39.461 92.01 32.951 102.27 C 32.731 102.61 32.521 102.96 32.321 103.31 C 29.211 108.68 26.661 113.1 24.391 117.05 C 23.821 118.02 23.271 118.96 22.751 119.88 C 22.561 120.21 22.371 120.53 22.191 120.85 L 21.601 121.87 C 21.571 121.92 21.541 121.98 21.501 122.03 C 21.151 122.65 20.801 123.25 20.451 123.85 C 19.591 125.32 18.761 126.77 17.921 128.22 C 17.641 128.7 17.371 129.19 17.081 129.67 C 16.641 130.42 16.211 131.16 15.781 131.93 C 15.561 132.31 15.331 132.71 15.111 133.09 C 14.941 133.38 14.771 133.68 14.601 133.97 C 14.251 134.57 13.911 135.17 13.551 135.78 C 13.371 136.08 13.191 136.39 13.011 136.7 C 13.011 136.7 12.991 136.72 13.011 136.73 C 12.851 137.02 12.691 137.29 12.521 137.58 C 12.361 137.87 12.191 138.16 12.021 138.45 C 11.741 138.93 11.461 139.43 11.161 139.93 C 11.141 139.95 11.131 139.97 11.121 140 C 10.851 140.46 10.571 140.95 10.291 141.43 C 8.391 144.74 6.271 148.41 3.801 152.68 C -1.919 162.58 -1.069 174.82 5.641 183.8 C 6.351 184.76 7.121 185.68 7.971 186.55 L 56.111 236.28 C 61.371 241.71 64.041 248.75 64.091 255.78 L 64.091 255.96 C 64.091 263.07 61.441 270.2 56.111 275.69 L 7.971 325.42 C 0.281 333.36 -1.989 344.92 1.791 355.03 C 1.971 355.52 2.171 356.01 2.391 356.5 C 2.491 356.73 2.601 356.97 2.711 357.21 C 3.041 357.92 3.411 358.61 3.801 359.3 C 6.841 364.57 9.351 368.92 11.611 372.81 C 11.611 372.83 11.631 372.85 11.641 372.86 C 12.021 373.49 12.371 374.13 12.731 374.75 C 13.101 375.38 13.451 376.01 13.811 376.63 C 14.211 377.34 14.611 378.03 15.011 378.71 C 15.471 379.52 15.941 380.33 16.401 381.12 C 16.451 381.2 16.501 381.29 16.541 381.37 C 16.751 381.73 16.951 382.08 17.161 382.43 C 18.041 383.96 18.911 385.48 19.801 387.01 C 19.981 387.31 20.161 387.62 20.341 387.93 C 20.411 388.06 20.491 388.21 20.571 388.34 C 20.701 388.56 20.841 388.79 20.961 389.02 C 21.091 389.24 21.221 389.48 21.341 389.7 C 21.481 389.92 21.611 390.15 21.731 390.38 C 22.051 390.92 22.361 391.47 22.691 392.02 C 22.771 392.17 22.861 392.32 22.951 392.48 C 23.111 392.77 23.281 393.05 23.451 393.35 C 24.081 394.44 24.721 395.56 25.401 396.73 C 25.651 397.17 25.911 397.61 26.171 398.06 C 27.991 401.21 30.001 404.68 32.321 408.69 C 32.801 409.52 33.321 410.33 33.871 411.09 C 34.061 411.35 34.241 411.59 34.421 411.83 C 34.561 412.01 34.711 412.19 34.851 412.36 C 35.021 412.57 35.191 412.77 35.361 412.98 C 35.531 413.18 35.711 413.36 35.871 413.56 C 36.031 413.74 36.201 413.92 36.381 414.1 C 43.291 421.36 53.691 424.54 63.731 422.01 L 130.871 405.18 C 137.881 403.43 144.941 404.45 150.901 407.56 C 151.171 407.69 151.431 407.84 151.691 407.99 C 157.961 411.53 162.881 417.44 165.011 424.89 L 184.971 494.84 C 189.381 505.11 199.551 511.94 210.961 511.96 C 223.391 511.98 231.431 511.98 239.481 512 L 269.211 512 C 281.351 511.5 291.881 503.28 295.261 491.5 L 314.331 424.97 C 316.441 417.61 321.281 411.74 327.461 408.21 C 327.781 408.01 328.101 407.83 328.431 407.66 C 334.421 404.47 341.561 403.42 348.641 405.18 L 415.781 422.01 C 427.621 424.99 439.981 420.03 446.511 409.83 C 446.741 409.46 446.971 409.08 447.201 408.7 C 450.191 403.53 452.681 399.22 454.891 395.38 C 454.921 395.33 454.951 395.27 454.991 395.22 C 455.331 394.64 455.651 394.08 455.971 393.51 C 456.151 393.21 456.321 392.9 456.501 392.6 C 456.541 392.53 456.591 392.47 456.631 392.39 C 457.041 391.66 457.461 390.94 457.871 390.24 C 458.321 389.47 458.751 388.7 459.191 387.95 C 460.001 386.54 460.801 385.16 461.601 383.77 C 461.881 383.29 462.151 382.8 462.441 382.32 C 462.881 381.57 463.311 380.83 463.741 380.06 C 463.961 379.68 464.191 379.28 464.411 378.9 C 464.581 378.61 464.751 378.31 464.921 378.02 C 465.271 377.42 465.611 376.82 465.971 376.21 C 466.151 375.91 466.331 375.6 466.511 375.29 C 466.511 375.29 466.531 375.27 466.511 375.26 C 466.831 374.7 467.161 374.13 467.501 373.54 C 467.781 373.06 468.061 372.56 468.361 372.06 C 468.381 372.04 468.391 372.02 468.401 371.99 C 468.671 371.53 468.951 371.04 469.231 370.56 C 471.131 367.25 473.251 363.58 475.721 359.31 C 481.441 349.41 480.591 337.17 473.891 328.2 L 473.901 328.2 Z" fill="url(#dark)" fill-rule="nonzero"></path></g><g transform="translate(134.851 151.08)"><path d="M 104.92 209.84 C 162.866 209.84 209.84 162.866 209.84 104.92 C 209.84 46.974 162.866 0 104.92 0 C 46.974 0 0 46.974 0 104.92 C 0 162.866 46.974 209.84 104.92 209.84 Z" fill="url(#light)" fill-rule="nonzero"></path></g>
</svg>